<mxfile host="app.diagrams.net" modified="2022-06-16T16:05:00.744Z" agent="5.0 (Macintosh; Intel Mac OS X 10_15_7) AppleWebKit/537.36 (KHTML, like Gecko) Chrome/102.0.0.0 Safari/537.36" etag="qxXd4PvClJ5riwxLaNcJ" version="20.0.1" type="github">
  <diagram id="SzxCXpG9WEm5tdeaBMhI" name="Page-1">
    <mxGraphModel dx="1094" dy="617" grid="1" gridSize="10" guides="1" tooltips="1" connect="1" arrows="1" fold="1" page="1" pageScale="1" pageWidth="850" pageHeight="1100" math="0" shadow="0">
      <root>
        <mxCell id="0" />
        <mxCell id="1" parent="0" />
        <mxCell id="FkKjiZBC8IbuCVVNftMB-9" value="" style="endArrow=classic;html=1;rounded=0;strokeColor=#FF3333;strokeWidth=2;entryX=1;entryY=1;entryDx=0;entryDy=0;" edge="1" parent="1" target="FkKjiZBC8IbuCVVNftMB-4">
          <mxGeometry width="50" height="50" relative="1" as="geometry">
            <mxPoint x="450" y="210" as="sourcePoint" />
            <mxPoint x="510" y="160" as="targetPoint" />
          </mxGeometry>
        </mxCell>
        <mxCell id="FkKjiZBC8IbuCVVNftMB-7" value="" style="edgeStyle=orthogonalEdgeStyle;rounded=0;orthogonalLoop=1;jettySize=auto;html=1;strokeColor=#FF3333;strokeWidth=2;" edge="1" parent="1" source="FkKjiZBC8IbuCVVNftMB-2" target="FkKjiZBC8IbuCVVNftMB-4">
          <mxGeometry relative="1" as="geometry" />
        </mxCell>
        <mxCell id="FkKjiZBC8IbuCVVNftMB-2" value="&lt;font style=&quot;font-size: 18px;&quot;&gt;Bytecode circuit&lt;/font&gt;" style="rounded=1;whiteSpace=wrap;html=1;" vertex="1" parent="1">
          <mxGeometry x="270" y="200" width="120" height="60" as="geometry" />
        </mxCell>
        <mxCell id="FkKjiZBC8IbuCVVNftMB-11" value="" style="edgeStyle=orthogonalEdgeStyle;rounded=0;orthogonalLoop=1;jettySize=auto;html=1;strokeColor=#FF3333;strokeWidth=2;" edge="1" parent="1" source="FkKjiZBC8IbuCVVNftMB-3" target="FkKjiZBC8IbuCVVNftMB-5">
          <mxGeometry relative="1" as="geometry" />
        </mxCell>
        <mxCell id="FkKjiZBC8IbuCVVNftMB-3" value="&lt;font style=&quot;font-size: 18px;&quot;&gt;Transaction circuit&lt;/font&gt;" style="rounded=1;whiteSpace=wrap;html=1;" vertex="1" parent="1">
          <mxGeometry x="440" y="200" width="120" height="60" as="geometry" />
        </mxCell>
        <mxCell id="FkKjiZBC8IbuCVVNftMB-4" value="&lt;font style=&quot;font-size: 18px;&quot;&gt;Keccak table&lt;/font&gt;" style="rounded=1;whiteSpace=wrap;html=1;" vertex="1" parent="1">
          <mxGeometry x="270" y="90" width="120" height="60" as="geometry" />
        </mxCell>
        <mxCell id="FkKjiZBC8IbuCVVNftMB-5" value="&lt;font style=&quot;font-size: 18px;&quot;&gt;Signature table&lt;/font&gt;" style="rounded=1;whiteSpace=wrap;html=1;" vertex="1" parent="1">
          <mxGeometry x="440" y="300" width="120" height="60" as="geometry" />
        </mxCell>
        <mxCell id="FkKjiZBC8IbuCVVNftMB-12" value="&lt;font style=&quot;font-size: 18px;&quot;&gt;bytecode circuit 和 tx circuit操作hash的时候也会用到Keccak table&lt;/font&gt;" style="text;html=1;strokeColor=none;fillColor=none;align=center;verticalAlign=middle;whiteSpace=wrap;rounded=0;" vertex="1" parent="1">
          <mxGeometry x="420" y="80" width="290" height="80" as="geometry" />
        </mxCell>
        <mxCell id="FkKjiZBC8IbuCVVNftMB-13" value="&lt;font style=&quot;font-size: 18px;&quot;&gt;对于Tx circuit，还会用到signature table验签&lt;/font&gt;" style="text;html=1;strokeColor=none;fillColor=none;align=center;verticalAlign=middle;whiteSpace=wrap;rounded=0;" vertex="1" parent="1">
          <mxGeometry x="180" y="285" width="230" height="90" as="geometry" />
        </mxCell>
      </root>
    </mxGraphModel>
  </diagram>
</mxfile>
